# xmcd
#
# Track frame offsets:
#	150
#	15422
#	30540
#	44727
#	59014
#	74167
#	88254
#	102987
#	118207
#	132970
#	152925
#	167177
#	179315
#	192777
#	206955
#	221627
#	235725
#	250375
#	265115
#	279767
#	294660
#	310142
#	323537
#
# Disc length: 4495 seconds
#
# Revision: 6
# Processed by: cddbd v1.5.2PL0 Copyright (c) Steve Scherf et al.
# Submitted via: EasyCDDAExtractor 16.0.6.1
#
DISCID=63118d17
DTITLE=Συλλογικός δίσκος - Ρεμπέτικα Songs Greek Underground 1
DYEAR=2005
DGENRE=Ρεμπέτικη
TTITLE0=Δελλιάς Ανέστης - Ο πόνος του πρεζάκια [1936, χασάπικος]
TTITLE1=Εσκενάζυ Ρόζα - Είμαι πρεζάκιας [1935, τσιφτετέλι]
TTITLE2=Βαμβακάρης Μάρκος - Εφουμέρναμ' ένα βράδυ [1932, ζεϊμπέκικος]
TTITLE3=Περπινιάδης Στελλάκης - Χθες το βράδυ στον τεκέ μας [1934, ζεϊμπέκικος
TTITLE3=]
TTITLE4=Καλυβόπουλος Αντώνης - Παραπονιούνται οι μάγκες μας [1936, χασάπ., Γιο
TTITLE4=βάν Τσαούς]
TTITLE5=Κασιμάτης Ζαχαρίας - Ο τεκετζής [1934, καρσιλαμάς]
TTITLE6=Μηττάκη Γεωργία - Αργιλέ μου γιατί σβήνεις [1935, ζεϊμπέκικος]
TTITLE7=Γιώργος Μπάτης - Ζεμπεκάνο σπανιόλο (ζούλα σε μιά βάρκα)[1936, ζεϊμπέκ
TTITLE7=ικος]
TTITLE8=Διαμαντίδης Αντώνης ή Νταλγκάς - Νέοι χασικλήδες [1928, ζεϊμπέκικος]
TTITLE9=Γιώργος Κατσαρός - Χτες το βράδυ στου Καρίπη [1935]
TTITLE10=Μάρκος Βαμβακάρης - Ο μαστούρας [1933, χασάπικος]
TTITLE11=Μαρσέλος Κώστας ή Νούρος - Μανώλης ο χασικλής [1930, μουσ. Ι. Δραγάτσ
TTITLE11=ης]
TTITLE12=Νικολάου Τάκης - Μέσ' στον τεκέ της Μαριγώς [1933]
TTITLE13=Εσκενάζυ Ρόζα - Μέσ' στου Ζαμπίκου τον τεκέ [1932, ζεϊμπέκικος]
TTITLE14=Μπάτης Γιώργος - Ο μπουφετζής [1935, χασάπικος]
TTITLE15=Περπινιάδης Στελλάκης - Ο αργιλές [1933]
TTITLE16=Μάρκος Βαμβακάρης - Κάν' τονε Σταύρο κάν' τονε [1935, Μάρκου Βαμβακάρ
TTITLE16=η]
TTITLE17=Αμπατζή Ρίτα - Χανουμάκια [1925, καρσιλαμάς]
TTITLE18=Γκόγκος Δημήτρης ή Μπαγιαντέρας - Πάντα με γλυκό χασίσι [1935, χασάπι
TTITLE18=κος]
TTITLE19=Κατσαρός Γιώργος - Μέσ' στου Μάνθου τον τεκέ [1938, ζεϊμπέκικος]
TTITLE20=Δελλιάς Ανέστης - Σούρα και μαστούρα [1936, χασάπικος]
TTITLE21=Κάβουρας Γιώργος - Ο σερέτης [1936, ζεϊμπέκικος]
TTITLE22=Καλυβόπουλος Αντώνης - Ο πρεζάκιας [1935, χασάπικος]
EXTD=YEAR: 2001
EXTT0=
EXTT1=
EXTT2=
EXTT3=
EXTT4=
EXTT5=
EXTT6=
EXTT7=
EXTT8=
EXTT9=
EXTT10=
EXTT11=
EXTT12=
EXTT13=
EXTT14=
EXTT15=
EXTT16=
EXTT17=
EXTT18=
EXTT19=
EXTT20=
EXTT21=
EXTT22=
PLAYORDER=
